<svg xmlns="http://www.w3.org/2000/svg" xmlns:xlink="http://www.w3.org/1999/xlink" width="375" viewBox="0 0 375 375" height="375" version="1.0"><defs><g id="c"><path d="M 19.382812 0.726562 C 28.710938 0.726562 35.769531 -4.929688 37.21875 -13.535156 L 27.3125 -13.535156 C 26.101562 -10.34375 23.25 -8.3125 19.578125 -8.3125 C 14.839844 -8.3125 11.550781 -11.84375 11.550781 -16.917969 C 11.550781 -22.042969 14.886719 -25.523438 19.671875 -25.523438 C 23.203125 -25.523438 26.152344 -23.539062 27.164062 -20.496094 L 37.027344 -20.496094 C 35.285156 -29.050781 28.324219 -34.5625 19.285156 -34.5625 C 8.847656 -34.5625 1.644531 -27.359375 1.644531 -16.917969 C 1.644531 -6.476562 8.847656 0.726562 19.382812 0.726562 Z M 19.382812 0.726562"/></g><g id="d"><path d="M 3.238281 0 L 12.519531 0 L 12.519531 -13.777344 C 12.519531 -16.871094 14.113281 -18.609375 16.675781 -18.609375 C 19.140625 -18.609375 20.589844 -17.015625 20.589844 -14.019531 L 20.589844 0 L 29.871094 0 L 29.871094 -14.984375 C 29.871094 -21.945312 25.859375 -26.296875 19.382812 -26.296875 C 16.726562 -26.296875 14.308594 -25.523438 12.519531 -24.121094 L 12.519531 -35.769531 L 3.238281 -35.769531 Z M 3.238281 0"/></g><g id="e"><path d="M 11.746094 0.578125 C 15.417969 0.578125 18.511719 -0.628906 20.6875 -2.804688 L 21.703125 0 L 28.375 0 L 28.375 -14.886719 C 28.375 -22.1875 23.78125 -26.296875 15.566406 -26.296875 C 8.410156 -26.296875 4.109375 -23.058594 3.335938 -17.160156 L 12.035156 -17.160156 C 12.277344 -18.660156 13.726562 -19.671875 15.613281 -19.671875 C 17.691406 -19.671875 19.335938 -18.464844 19.335938 -16.773438 L 19.335938 -15.324219 L 10.730469 -15.324219 C 5.460938 -15.324219 2.078125 -12.179688 2.078125 -7.492188 C 2.078125 -2.511719 5.847656 0.578125 11.746094 0.578125 Z M 11.164062 -7.925781 C 11.164062 -9.378906 12.421875 -10.246094 14.40625 -10.246094 L 19.433594 -10.246094 C 19.433594 -7.445312 17.304688 -5.558594 14.5 -5.558594 C 12.519531 -5.558594 11.164062 -6.476562 11.164062 -7.925781 Z M 11.164062 -7.925781"/></g><g id="f"><path d="M 16.242188 0 L 21.414062 0 L 21.414062 -7.832031 L 18.753906 -7.832031 C 16.046875 -7.832031 14.792969 -9.039062 14.792969 -11.699219 L 14.792969 -18.273438 L 21.074219 -18.273438 L 21.074219 -25.570312 L 14.792969 -25.570312 L 14.792969 -32.289062 L 7.589844 -32.289062 L 7.105469 -28.953125 C 6.71875 -26.296875 5.992188 -25.570312 3.09375 -25.570312 L 0.773438 -25.570312 L 0.773438 -18.273438 L 5.511719 -18.273438 L 5.511719 -9.910156 C 5.511719 -3.433594 9.234375 0 16.242188 0 Z M 16.242188 0"/></g><g id="g"><path d="M 0.242188 0 L 10.585938 0 L 12.421875 -4.785156 L 23.976562 -4.785156 L 25.8125 0 L 36.203125 0 L 23.058594 -33.835938 L 13.390625 -33.835938 Z M 14.453125 -11.9375 L 18.222656 -22.429688 L 21.992188 -11.9375 Z M 14.453125 -11.9375"/></g><g id="h"><path d="M 3.578125 0 L 13.339844 0 L 13.339844 -8.363281 L 17.835938 -8.363281 C 26.441406 -8.363281 31.902344 -13.339844 31.902344 -21.125 C 31.902344 -28.90625 26.441406 -33.835938 17.835938 -33.835938 L 3.578125 -33.835938 Z M 13.246094 -16.53125 L 13.246094 -25.617188 L 16.917969 -25.617188 C 20.15625 -25.617188 22.042969 -23.878906 22.042969 -21.074219 C 22.042969 -18.222656 20.15625 -16.53125 16.917969 -16.53125 Z M 13.246094 -16.53125"/></g><g id="i"><path d="M 1.28125 0 L 6.078125 0 L 6.078125 -0.644531 L 1.972656 -0.644531 L 1.972656 -3.730469 L 5.660156 -3.730469 L 5.660156 -4.367188 L 1.972656 -4.367188 L 1.972656 -7.292969 L 5.953125 -7.292969 L 5.953125 -7.9375 L 1.28125 -7.9375 Z M 1.28125 0"/></g><g id="j"><path d="M 4.75 0.148438 C 6.621094 0.148438 8.152344 -0.953125 8.640625 -2.664062 L 7.914062 -2.664062 C 7.472656 -1.347656 6.25 -0.542969 4.761719 -0.542969 C 2.824219 -0.542969 1.429688 -1.9375 1.429688 -3.96875 C 1.429688 -6 2.824219 -7.394531 4.761719 -7.394531 C 6.214844 -7.394531 7.394531 -6.621094 7.847656 -5.363281 L 8.574219 -5.363281 C 8.050781 -7.03125 6.566406 -8.085938 4.75 -8.085938 C 2.414062 -8.085938 0.726562 -6.382812 0.726562 -3.96875 C 0.726562 -1.554688 2.414062 0.148438 4.75 0.148438 Z M 4.75 0.148438"/></g><g id="l"><path d="M 2.867188 0 L 3.527344 0 L 4.648438 -3.0625 L 6.054688 -6.894531 L 8.597656 0 L 9.242188 0 L 11.851562 -7.9375 L 11.125 -7.9375 L 9.957031 -4.320312 L 8.902344 -1.066406 L 6.382812 -7.9375 L 5.726562 -7.9375 L 4.410156 -4.320312 L 3.21875 -1.078125 L 2.175781 -4.320312 L 0.996094 -7.9375 L 0.273438 -7.9375 Z M 2.867188 0"/></g><g id="m"><path d="M 1.28125 0 L 4.421875 0 C 5.964844 0 6.929688 -0.828125 6.929688 -2.164062 C 6.929688 -3.128906 6.394531 -3.820312 5.476562 -4.09375 C 6.25 -4.367188 6.703125 -5.011719 6.703125 -5.875 C 6.703125 -7.132812 5.761719 -7.9375 4.296875 -7.9375 L 1.28125 -7.9375 Z M 1.972656 -0.644531 L 1.972656 -3.730469 L 4.367188 -3.730469 C 5.546875 -3.730469 6.226562 -3.164062 6.226562 -2.1875 C 6.226562 -1.226562 5.546875 -0.644531 4.398438 -0.644531 Z M 1.972656 -4.367188 L 1.972656 -7.292969 L 4.285156 -7.292969 C 5.363281 -7.292969 6 -6.734375 6 -5.828125 C 6 -4.910156 5.363281 -4.367188 4.273438 -4.367188 Z M 1.972656 -4.367188"/></g><g id="n"><path d="M 6.621094 0 L 7.3125 0 L 7.3125 -7.9375 L 6.621094 -7.9375 L 6.621094 -4.378906 L 1.972656 -4.378906 L 1.972656 -7.9375 L 1.28125 -7.9375 L 1.28125 0 L 1.972656 0 L 1.972656 -3.71875 L 6.621094 -3.71875 Z M 6.621094 0"/></g><g id="o"><path d="M 0.25 0 L 0.988281 0 L 1.804688 -1.996094 L 5.929688 -1.996094 L 6.757812 0 L 7.484375 0 L 4.195312 -7.9375 L 3.539062 -7.9375 Z M 2.074219 -2.632812 L 3.867188 -6.996094 L 5.671875 -2.632812 Z M 2.074219 -2.632812"/></g><g id="p"><path d="M 3.164062 0 L 3.84375 0 L 3.84375 -7.28125 L 6.589844 -7.28125 L 6.589844 -7.9375 L 0.429688 -7.9375 L 0.429688 -7.28125 L 3.164062 -7.28125 Z M 3.164062 0"/></g><g id="q"><path d="M 1.28125 0 L 1.972656 0 L 1.972656 -2.722656 L 3.800781 -2.722656 C 5.636719 -2.722656 6.726562 -3.683594 6.726562 -5.328125 C 6.726562 -6.972656 5.636719 -7.9375 3.800781 -7.9375 L 1.28125 -7.9375 Z M 1.972656 -3.355469 L 1.972656 -7.28125 L 3.789062 -7.28125 C 5.273438 -7.28125 6.03125 -6.609375 6.03125 -5.320312 C 6.03125 -4.027344 5.273438 -3.355469 3.789062 -3.355469 Z M 1.972656 -3.355469"/></g><g id="k"><path d="M 0.90625 -2.574219 L 4.253906 -2.574219 L 4.253906 -3.1875 L 0.90625 -3.1875 Z M 0.90625 -2.574219"/></g><clipPath id="a"><path d="M 172 121 L 286.480469 121 L 286.480469 208.988281 L 172 208.988281 Z M 172 121"/></clipPath><clipPath id="b"><path d="M 113.429688 91.238281 L 227 91.238281 L 227 179 L 113.429688 179 Z M 113.429688 91.238281"/></clipPath></defs><g clip-path="url(#a)"><path fill="#C6C6C6" d="M 192.976562 125.171875 L 192.976562 121.917969 L 266.339844 121.917969 C 271.851562 121.917969 276.867188 124.15625 280.476562 127.753906 C 284.09375 131.351562 286.339844 136.355469 286.332031 141.84375 L 286.332031 172.285156 C 286.332031 176.894531 284.746094 181.171875 282.097656 184.546875 C 279.445312 187.921875 275.726562 190.429688 271.4375 191.554688 L 270.609375 188.40625 L 273.4375 190.03125 L 264.554688 205.359375 C 263.875 206.527344 262.894531 207.464844 261.796875 208.070312 C 260.695312 208.683594 259.480469 208.976562 258.273438 208.976562 C 257.066406 208.976562 255.847656 208.675781 254.75 208.070312 C 253.648438 207.464844 252.667969 206.535156 251.996094 205.359375 L 244.378906 192.203125 L 192.976562 192.203125 C 187.46875 192.203125 182.449219 189.964844 178.839844 186.367188 C 175.222656 182.769531 172.984375 177.769531 172.984375 172.277344 L 172.984375 141.851562 C 172.984375 136.359375 175.230469 131.359375 178.839844 127.761719 C 182.449219 124.15625 187.46875 121.917969 192.976562 121.925781 L 192.976562 128.421875 C 189.25 128.421875 185.902344 129.921875 183.453125 132.351562 C 181.011719 134.792969 179.511719 138.128906 179.511719 141.84375 L 179.511719 172.285156 C 179.511719 176 181.011719 179.335938 183.453125 181.777344 C 185.902344 184.207031 189.25 185.703125 192.976562 185.703125 L 248.144531 185.703125 L 257.648438 202.125 C 257.738281 202.273438 257.816406 202.339844 257.914062 202.398438 C 258.011719 202.449219 258.144531 202.488281 258.28125 202.488281 C 258.417969 202.488281 258.542969 202.457031 258.644531 202.398438 C 258.746094 202.339844 258.824219 202.273438 258.914062 202.125 L 268.476562 185.621094 L 269.792969 185.277344 C 272.671875 184.519531 275.183594 182.835938 276.972656 180.550781 C 278.761719 178.269531 279.820312 175.417969 279.824219 172.296875 L 279.824219 141.851562 C 279.824219 138.136719 278.324219 134.800781 275.882812 132.359375 C 273.4375 129.925781 270.085938 128.429688 266.359375 128.429688 L 192.988281 128.429688 L 192.988281 125.171875"/></g><g clip-path="url(#b)"><path fill="#6257E3" d="M 133.289062 91.230469 C 133.289062 91.230469 133.296875 91.230469 133.296875 91.230469 L 206.667969 91.230469 C 212.175781 91.230469 217.203125 93.46875 220.804688 97.066406 C 224.421875 100.664062 226.664062 105.667969 226.660156 111.15625 L 226.660156 121.917969 L 220.132812 121.917969 L 220.132812 111.15625 C 220.132812 107.445312 218.632812 104.105469 216.191406 101.667969 C 213.742188 99.234375 210.394531 97.738281 206.667969 97.738281 L 133.296875 97.738281 C 129.570312 97.738281 126.222656 99.234375 123.773438 101.667969 C 121.332031 104.105469 119.832031 107.445312 119.832031 111.15625 L 119.832031 141.605469 C 119.832031 144.726562 120.894531 147.574219 122.683594 149.859375 C 124.472656 152.144531 126.984375 153.828125 129.863281 154.582031 L 131.175781 154.925781 L 140.734375 171.433594 C 140.828125 171.582031 140.90625 171.644531 141.003906 171.703125 C 141.101562 171.757812 141.230469 171.796875 141.371094 171.796875 C 141.507812 171.796875 141.636719 171.761719 141.734375 171.703125 C 141.832031 171.644531 141.910156 171.582031 142.003906 171.433594 L 151.503906 155.023438 L 172.984375 155.023438 L 172.984375 161.53125 L 155.277344 161.53125 L 147.660156 174.683594 C 146.980469 175.855469 146.003906 176.792969 144.90625 177.398438 C 143.804688 178.003906 142.589844 178.300781 141.382812 178.300781 C 140.175781 178.300781 138.960938 178.003906 137.859375 177.398438 C 136.753906 176.792969 135.777344 175.863281 135.105469 174.683594 L 126.867188 160.46875 C 123.148438 159.207031 119.921875 156.886719 117.558594 153.867188 C 114.910156 150.492188 113.324219 146.214844 113.324219 141.605469 L 113.324219 111.15625 C 113.324219 105.667969 115.570312 100.664062 119.179688 97.066406 C 122.769531 93.46875 127.789062 91.230469 133.289062 91.230469"/></g><path fill="#C6C6C6" d="M 172.976562 155.03125 L 176.242188 155.03125 C 178.042969 155.03125 179.503906 156.488281 179.503906 158.285156 C 179.503906 160.078125 178.042969 161.535156 176.242188 161.535156 L 172.976562 161.535156 L 172.976562 155.03125 M 220.140625 121.925781 L 226.664062 121.925781 L 226.664062 125.175781 C 226.664062 126.972656 225.203125 128.429688 223.402344 128.429688 C 221.601562 128.429688 220.140625 126.972656 220.140625 125.175781 L 220.140625 121.925781"/><g fill="#02084B"><use x="95.396" y="255.557" xmlns:xlink="http://www.w3.org/1999/xlink" xlink:href="#c" xlink:type="simple" xlink:actuate="onLoad" xlink:show="embed"/></g><g fill="#02084B"><use x="132.947" y="255.557" xmlns:xlink="http://www.w3.org/1999/xlink" xlink:href="#d" xlink:type="simple" xlink:actuate="onLoad" xlink:show="embed"/></g><g fill="#02084B"><use x="164.36" y="255.557" xmlns:xlink="http://www.w3.org/1999/xlink" xlink:href="#e" xlink:type="simple" xlink:actuate="onLoad" xlink:show="embed"/></g><g fill="#02084B"><use x="194.274" y="255.557" xmlns:xlink="http://www.w3.org/1999/xlink" xlink:href="#f" xlink:type="simple" xlink:actuate="onLoad" xlink:show="embed"/></g><g fill="#02084B"><use x="216.36" y="255.557" xmlns:xlink="http://www.w3.org/1999/xlink" xlink:href="#g" xlink:type="simple" xlink:actuate="onLoad" xlink:show="embed"/></g><g fill="#02084B"><use x="251.591" y="255.557" xmlns:xlink="http://www.w3.org/1999/xlink" xlink:href="#h" xlink:type="simple" xlink:actuate="onLoad" xlink:show="embed"/></g><g fill="#02084B"><use x="283.39" y="255.557" xmlns:xlink="http://www.w3.org/1999/xlink" xlink:href="#h" xlink:type="simple" xlink:actuate="onLoad" xlink:show="embed"/></g><g fill="#737373"><use x="119.224" y="275.308" xmlns:xlink="http://www.w3.org/1999/xlink" xlink:href="#i" xlink:type="simple" xlink:actuate="onLoad" xlink:show="embed"/></g><g fill="#737373"><use x="131.116" y="275.308" xmlns:xlink="http://www.w3.org/1999/xlink" xlink:href="#j" xlink:type="simple" xlink:actuate="onLoad" xlink:show="embed"/></g><g fill="#737373"><use x="145.422" y="275.308" xmlns:xlink="http://www.w3.org/1999/xlink" xlink:href="#i" xlink:type="simple" xlink:actuate="onLoad" xlink:show="embed"/></g><g fill="#737373"><use x="157.314" y="275.308" xmlns:xlink="http://www.w3.org/1999/xlink" xlink:href="#k" xlink:type="simple" xlink:actuate="onLoad" xlink:show="embed"/></g><g fill="#737373"><use x="167.46" y="275.308" xmlns:xlink="http://www.w3.org/1999/xlink" xlink:href="#l" xlink:type="simple" xlink:actuate="onLoad" xlink:show="embed"/></g><g fill="#737373"><use x="184.565" y="275.308" xmlns:xlink="http://www.w3.org/1999/xlink" xlink:href="#i" xlink:type="simple" xlink:actuate="onLoad" xlink:show="embed"/></g><g fill="#737373"><use x="196.457" y="275.308" xmlns:xlink="http://www.w3.org/1999/xlink" xlink:href="#m" xlink:type="simple" xlink:actuate="onLoad" xlink:show="embed"/></g><g fill="#737373"><use x="209.108" y="275.308" xmlns:xlink="http://www.w3.org/1999/xlink" xlink:href="#j" xlink:type="simple" xlink:actuate="onLoad" xlink:show="embed"/></g><g fill="#737373"><use x="223.414" y="275.308" xmlns:xlink="http://www.w3.org/1999/xlink" xlink:href="#n" xlink:type="simple" xlink:actuate="onLoad" xlink:show="embed"/></g><g fill="#737373"><use x="236.994" y="275.308" xmlns:xlink="http://www.w3.org/1999/xlink" xlink:href="#o" xlink:type="simple" xlink:actuate="onLoad" xlink:show="embed"/></g><g fill="#737373"><use x="249.725" y="275.308" xmlns:xlink="http://www.w3.org/1999/xlink" xlink:href="#p" xlink:type="simple" xlink:actuate="onLoad" xlink:show="embed"/></g><g fill="#737373"><use x="261.73" y="275.308" xmlns:xlink="http://www.w3.org/1999/xlink" xlink:href="#o" xlink:type="simple" xlink:actuate="onLoad" xlink:show="embed"/></g><g fill="#737373"><use x="274.46" y="275.308" xmlns:xlink="http://www.w3.org/1999/xlink" xlink:href="#q" xlink:type="simple" xlink:actuate="onLoad" xlink:show="embed"/></g><g fill="#737373"><use x="286.703" y="275.308" xmlns:xlink="http://www.w3.org/1999/xlink" xlink:href="#q" xlink:type="simple" xlink:actuate="onLoad" xlink:show="embed"/></g></svg>